<svg width="100" height="100" viewBox="0 0 100 100" fill="none" xmlns="http://www.w3.org/2000/svg">
<g clip-path="url(#clip0_90_2279)">
<mask id="mask0_90_2279" style="mask-type:luminance" maskUnits="userSpaceOnUse" x="0" y="0" width="100" height="100">
<path d="M50 100C22.384 100 0 77.616 0 50C0 22.384 22.384 0 50 0C77.616 0 100 22.384 100 50C100 77.616 77.616 100 50 100Z" fill="white"/>
</mask>
<g mask="url(#mask0_90_2279)">
<path fill-rule="evenodd" clip-rule="evenodd" d="M50 50.0001L-20.72 49.5641L-20.656 46.9641L50 50.0001Z" fill="#FEFEFF"/>
<path fill-rule="evenodd" clip-rule="evenodd" d="M50 50L-20.668 47.396L-20.56 45.228L50 50Z" fill="#FDFEFF"/>
<path fill-rule="evenodd" clip-rule="evenodd" d="M50 50L-20.584 45.664L-20.424 43.5L50 50Z" fill="#FCFDFF"/>
<path fill-rule="evenodd" clip-rule="evenodd" d="M50 50L-20.456 43.932L-20.244 41.772L50 50Z" fill="#FBFCFF"/>
<path fill-rule="evenodd" clip-rule="evenodd" d="M50 50L-20.284 42.204L-20.02 40.052L50 50Z" fill="#FAFCFF"/>
<path fill-rule="evenodd" clip-rule="evenodd" d="M50 49.9999L-20.072 40.4839L-19.756 38.3359L50 49.9999Z" fill="#F9FBFF"/>
<path fill-rule="evenodd" clip-rule="evenodd" d="M50 49.9999L-19.816 38.7639L-19.448 36.6279L50 49.9999Z" fill="#F8FAFF"/>
<path fill-rule="evenodd" clip-rule="evenodd" d="M50 50L-19.52 37.056L-19.1 34.928L50 50Z" fill="#F7FAFF"/>
<path fill-rule="evenodd" clip-rule="evenodd" d="M50 50.0001L-19.184 35.3561L-18.708 33.2361L50 50.0001Z" fill="#F6F9FF"/>
<path fill-rule="evenodd" clip-rule="evenodd" d="M50 50.0002L-18.804 33.6602L-18.276 31.5562L50 50.0002Z" fill="#F5F8FF"/>
<path fill-rule="evenodd" clip-rule="evenodd" d="M50 50L-18.38 31.976L-17.804 29.884L50 50Z" fill="#F4F8FF"/>
<path fill-rule="evenodd" clip-rule="evenodd" d="M50 50L-17.92 30.304L-17.288 28.228L50 50Z" fill="#F3F7FF"/>
<path fill-rule="evenodd" clip-rule="evenodd" d="M50 50L-17.416 28.644L-16.732 26.584L50 50Z" fill="#F2F6FF"/>
<path fill-rule="evenodd" clip-rule="evenodd" d="M50 50.0001L-16.872 26.9961L-16.14 24.9521L50 50.0001Z" fill="#F1F6FF"/>
<path fill-rule="evenodd" clip-rule="evenodd" d="M50 49.9999L-16.284 25.3599L-15.504 23.3359L50 49.9999Z" fill="#F0F5FF"/>
<path fill-rule="evenodd" clip-rule="evenodd" d="M50 50.0001L-15.66 23.7401L-14.832 21.7361L50 50.0001Z" fill="#EFF4FF"/>
<path fill-rule="evenodd" clip-rule="evenodd" d="M50 50L-14.996 22.136L-14.116 20.156L50 50Z" fill="#EEF3FF"/>
<path fill-rule="evenodd" clip-rule="evenodd" d="M50 50L-14.292 20.552L-13.364 18.592L50 50Z" fill="#EDF3FF"/>
<path fill-rule="evenodd" clip-rule="evenodd" d="M50 49.9999L-13.552 18.9839L-12.576 17.0439L50 49.9999Z" fill="#ECF2FF"/>
<path fill-rule="evenodd" clip-rule="evenodd" d="M50 50L-12.772 17.432L-11.748 15.52L50 50Z" fill="#EBF1FF"/>
<path fill-rule="evenodd" clip-rule="evenodd" d="M50 50L-11.952 15.904L-10.884 14.012L50 50Z" fill="#EAF1FF"/>
<path fill-rule="evenodd" clip-rule="evenodd" d="M50 50L-11.096 14.392L-9.98001 12.532L50 50Z" fill="#E9F0FF"/>
<path fill-rule="evenodd" clip-rule="evenodd" d="M50 50.0001L-10.204 12.9041L-9.04401 11.0681L50 50.0001Z" fill="#E8EFFF"/>
<path fill-rule="evenodd" clip-rule="evenodd" d="M50 50.0001L-9.276 11.4361L-8.068 9.63208L50 50.0001Z" fill="#E7EFFF"/>
<path fill-rule="evenodd" clip-rule="evenodd" d="M50 50L-8.312 9.99197L-7.064 8.21997L50 50Z" fill="#E6EEFF"/>
<path fill-rule="evenodd" clip-rule="evenodd" d="M50 50L-7.312 8.57603L-6.02 6.83203L50 50Z" fill="#E5EDFF"/>
<path fill-rule="evenodd" clip-rule="evenodd" d="M50 50L-6.28 7.18002L-4.944 5.46802L50 50Z" fill="#E4EDFF"/>
<path fill-rule="evenodd" clip-rule="evenodd" d="M50 50L-5.21201 5.81199L-3.83601 4.13599L50 50Z" fill="#E3ECFF"/>
<path fill-rule="evenodd" clip-rule="evenodd" d="M50 50.0001L-4.108 4.47213L-2.692 2.82812L50 50.0001Z" fill="#E2EBFF"/>
<path fill-rule="evenodd" clip-rule="evenodd" d="M50 50.0001L-2.97601 3.1561L-1.52001 1.5481L50 50.0001Z" fill="#E1EBFF"/>
<path fill-rule="evenodd" clip-rule="evenodd" d="M50 50L-1.81201 1.87205L-0.316012 0.300049L50 50Z" fill="#E0EAFF"/>
<path fill-rule="evenodd" clip-rule="evenodd" d="M50 50.0001L-0.615997 0.616078L0.920003 -0.919922L50 50.0001Z" fill="#DFE9FF"/>
<path fill-rule="evenodd" clip-rule="evenodd" d="M50 50.0001L0.615997 -0.61591L2.184 -2.10791L50 50.0001Z" fill="#DEE9FF"/>
<path fill-rule="evenodd" clip-rule="evenodd" d="M50 49.9999L1.87201 -1.81207L3.48001 -3.26807L50 49.9999Z" fill="#DDE8FF"/>
<path fill-rule="evenodd" clip-rule="evenodd" d="M50 49.9999L3.15601 -2.97609L4.80001 -4.39209L50 49.9999Z" fill="#DCE7FF"/>
<path fill-rule="evenodd" clip-rule="evenodd" d="M50 50.0001L4.47198 -4.10789L6.14798 -5.48389L50 50.0001Z" fill="#DBE7FF"/>
<path fill-rule="evenodd" clip-rule="evenodd" d="M50 50.0001L5.81201 -5.21195L7.52401 -6.54395L50 50.0001Z" fill="#DAE6FF"/>
<path fill-rule="evenodd" clip-rule="evenodd" d="M50 50L7.17999 -6.28002L8.92399 -7.57202L50 50Z" fill="#D9E5FF"/>
<path fill-rule="evenodd" clip-rule="evenodd" d="M50 49.9999L8.57599 -7.31206L10.348 -8.56006L50 49.9999Z" fill="#D8E5FF"/>
<path fill-rule="evenodd" clip-rule="evenodd" d="M50 50.0001L9.992 -8.31187L11.796 -9.51587L50 50.0001Z" fill="#D7E4FF"/>
<path fill-rule="evenodd" clip-rule="evenodd" d="M50 50L11.436 -9.27604L13.272 -10.436L50 50Z" fill="#D6E3FF"/>
<path fill-rule="evenodd" clip-rule="evenodd" d="M50 49.9999L12.904 -10.2041L14.764 -11.3201L50 49.9999Z" fill="#D5E3FF"/>
<path fill-rule="evenodd" clip-rule="evenodd" d="M50 49.9999L14.392 -11.0961L16.28 -12.1641L50 49.9999Z" fill="#D4E2FF"/>
<path fill-rule="evenodd" clip-rule="evenodd" d="M50 49.9999L15.904 -11.9521L17.816 -12.9761L50 49.9999Z" fill="#D3E1FF"/>
<path fill-rule="evenodd" clip-rule="evenodd" d="M50 50.0001L17.432 -12.7719L19.372 -13.7439L50 50.0001Z" fill="#D2E0FF"/>
<path fill-rule="evenodd" clip-rule="evenodd" d="M50 49.9999L18.984 -13.5521L20.944 -14.4761L50 49.9999Z" fill="#D1E0FF"/>
<path fill-rule="evenodd" clip-rule="evenodd" d="M50 50.0001L20.552 -14.2919L22.536 -15.1719L50 50.0001Z" fill="#D0DFFF"/>
<path fill-rule="evenodd" clip-rule="evenodd" d="M50 50.0001L22.136 -14.9959L24.144 -15.8279L50 50.0001Z" fill="#CFDEFF"/>
<path fill-rule="evenodd" clip-rule="evenodd" d="M50 50.0001L23.74 -15.6599L25.768 -16.4399L50 50.0001Z" fill="#CEDEFF"/>
<path fill-rule="evenodd" clip-rule="evenodd" d="M50 50.0001L25.36 -16.2839L27.404 -17.0159L50 50.0001Z" fill="#CDDDFF"/>
<path fill-rule="evenodd" clip-rule="evenodd" d="M50 50.0001L26.996 -16.8719L29.056 -17.5479L50 50.0001Z" fill="#CCDCFF"/>
<path fill-rule="evenodd" clip-rule="evenodd" d="M50 50.0001L28.644 -17.4159L30.72 -18.0439L50 50.0001Z" fill="#CBDCFF"/>
<path fill-rule="evenodd" clip-rule="evenodd" d="M50 50.0001L30.304 -17.9198L32.396 -18.4958L50 50.0001Z" fill="#CADBFF"/>
<path fill-rule="evenodd" clip-rule="evenodd" d="M50 50L31.976 -18.38L34.08 -18.908L50 50Z" fill="#C9DAFF"/>
<path fill-rule="evenodd" clip-rule="evenodd" d="M50 50.0001L33.66 -18.8039L35.776 -19.2759L50 50.0001Z" fill="#C8DAFF"/>
<path fill-rule="evenodd" clip-rule="evenodd" d="M50 50L35.356 -19.184L37.48 -19.604L50 50Z" fill="#C7D9FF"/>
<path fill-rule="evenodd" clip-rule="evenodd" d="M50 49.9999L37.056 -19.5201L39.192 -19.8921L50 49.9999Z" fill="#C6D8FF"/>
<path fill-rule="evenodd" clip-rule="evenodd" d="M50 50L38.764 -19.816L40.912 -20.136L50 50Z" fill="#C5D8FF"/>
<path fill-rule="evenodd" clip-rule="evenodd" d="M50 50.0001L40.484 -20.0719L42.636 -20.3359L50 50.0001Z" fill="#C4D7FF"/>
<path fill-rule="evenodd" clip-rule="evenodd" d="M50 49.9999L42.204 -20.2841L44.364 -20.4961L50 49.9999Z" fill="#C3D6FF"/>
<path fill-rule="evenodd" clip-rule="evenodd" d="M50 50L43.932 -20.456L46.096 -20.616L50 50Z" fill="#C2D6FF"/>
<path fill-rule="evenodd" clip-rule="evenodd" d="M50 50L45.664 -20.584L47.832 -20.688L50 50Z" fill="#C1D5FF"/>
<path fill-rule="evenodd" clip-rule="evenodd" d="M50 50L47.396 -20.668L49.564 -20.72L50 50Z" fill="#C0D4FF"/>
<path fill-rule="evenodd" clip-rule="evenodd" d="M50 50.0001L49.132 -20.7119H51.3L50 50.0001Z" fill="#BFD4FF"/>
<path fill-rule="evenodd" clip-rule="evenodd" d="M50 50.0001L50.868 -20.7119L53.036 -20.6559L50 50.0001Z" fill="#BED3FF"/>
<path fill-rule="evenodd" clip-rule="evenodd" d="M50 50L52.604 -20.668L54.768 -20.56L50 50Z" fill="#BDD2FF"/>
<path fill-rule="evenodd" clip-rule="evenodd" d="M50 50L54.336 -20.584L56.5 -20.424L50 50Z" fill="#BCD2FF"/>
<path fill-rule="evenodd" clip-rule="evenodd" d="M50 49.9999L56.068 -20.4561L58.228 -20.2441L50 49.9999Z" fill="#BBD1FF"/>
<path fill-rule="evenodd" clip-rule="evenodd" d="M50 50.0001L57.792 -20.2839L59.948 -20.0199L50 50.0001Z" fill="#BAD0FF"/>
<path fill-rule="evenodd" clip-rule="evenodd" d="M50 50L59.516 -20.072L61.664 -19.756L50 50Z" fill="#B9D0FF"/>
<path fill-rule="evenodd" clip-rule="evenodd" d="M50 50.0001L61.232 -19.8159L63.372 -19.4479L50 50.0001Z" fill="#B8CFFF"/>
<path fill-rule="evenodd" clip-rule="evenodd" d="M50 50L62.944 -19.52L65.072 -19.1L50 50Z" fill="#B7CEFF"/>
<path fill-rule="evenodd" clip-rule="evenodd" d="M50 49.9999L64.644 -19.1841L66.764 -18.7081L50 49.9999Z" fill="#B6CDFF"/>
<path fill-rule="evenodd" clip-rule="evenodd" d="M50 50L66.34 -18.804L68.444 -18.276L50 50Z" fill="#B5CDFF"/>
<path fill-rule="evenodd" clip-rule="evenodd" d="M50 50.0001L68.024 -18.3799L70.112 -17.8039L50 50.0001Z" fill="#B4CCFF"/>
<path fill-rule="evenodd" clip-rule="evenodd" d="M50 50.0001L69.696 -17.9199L71.772 -17.2879L50 50.0001Z" fill="#B3CBFF"/>
<path fill-rule="evenodd" clip-rule="evenodd" d="M50 50L71.356 -17.416L73.416 -16.732L50 50Z" fill="#B2CBFF"/>
<path fill-rule="evenodd" clip-rule="evenodd" d="M50 49.9999L73.004 -16.8721L75.048 -16.1401L50 49.9999Z" fill="#B1CAFF"/>
<path fill-rule="evenodd" clip-rule="evenodd" d="M50 50.0001L74.64 -16.2839L76.664 -15.5039L50 50.0001Z" fill="#B0C9FF"/>
<path fill-rule="evenodd" clip-rule="evenodd" d="M50 50.0001L76.256 -15.6599L78.264 -14.8319L50 50.0001Z" fill="#AFC9FF"/>
<path fill-rule="evenodd" clip-rule="evenodd" d="M50 50.0001L77.86 -14.9958L79.844 -14.1158L50 50.0001Z" fill="#AEC8FF"/>
<path fill-rule="evenodd" clip-rule="evenodd" d="M50 50L79.448 -14.292L81.408 -13.364L50 50Z" fill="#ADC7FF"/>
<path fill-rule="evenodd" clip-rule="evenodd" d="M50 50L81.016 -13.552L82.956 -12.576L50 50Z" fill="#ACC7FF"/>
<path fill-rule="evenodd" clip-rule="evenodd" d="M50 50L82.568 -12.772L84.48 -11.748L50 50Z" fill="#ABC6FF"/>
<path fill-rule="evenodd" clip-rule="evenodd" d="M50 50.0001L84.096 -11.9519L85.988 -10.8839L50 50.0001Z" fill="#AAC5FF"/>
<path fill-rule="evenodd" clip-rule="evenodd" d="M50 50.0001L85.608 -11.0959L87.468 -9.97995L50 50.0001Z" fill="#A9C5FF"/>
<path fill-rule="evenodd" clip-rule="evenodd" d="M50 50.0001L87.096 -10.2039L88.928 -9.04386L50 50.0001Z" fill="#A8C4FF"/>
<path fill-rule="evenodd" clip-rule="evenodd" d="M50 50.0001L88.564 -9.27588L90.368 -8.06788L50 50.0001Z" fill="#A7C3FF"/>
<path fill-rule="evenodd" clip-rule="evenodd" d="M50 50L90.008 -8.31201L91.78 -7.06401L50 50Z" fill="#A6C3FF"/>
<path fill-rule="evenodd" clip-rule="evenodd" d="M50 50L91.424 -7.31201L93.168 -6.02001L50 50Z" fill="#A5C2FF"/>
<path fill-rule="evenodd" clip-rule="evenodd" d="M50 50L92.82 -6.28003L94.528 -4.94403L50 50Z" fill="#A4C1FF"/>
<path fill-rule="evenodd" clip-rule="evenodd" d="M50 50.0001L94.188 -5.21191L95.864 -3.83591L50 50.0001Z" fill="#A3C1FF"/>
<path fill-rule="evenodd" clip-rule="evenodd" d="M50 50.0001L95.528 -4.10791L97.172 -2.69191L50 50.0001Z" fill="#A2C0FF"/>
<path fill-rule="evenodd" clip-rule="evenodd" d="M50 49.9999L96.844 -2.97607L98.452 -1.52007L50 49.9999Z" fill="#A1BFFF"/>
<path fill-rule="evenodd" clip-rule="evenodd" d="M50 50L98.128 -1.81201L99.7 -0.316012L50 50Z" fill="#A0BFFF"/>
<path fill-rule="evenodd" clip-rule="evenodd" d="M50 50L99.384 -0.615967L100.92 0.920033L50 50Z" fill="#9FBEFF"/>
<path fill-rule="evenodd" clip-rule="evenodd" d="M50 50L100.612 0.615967L102.108 2.18397L50 50Z" fill="#9EBDFF"/>
<path fill-rule="evenodd" clip-rule="evenodd" d="M50 50.0001L101.812 1.87207L103.268 3.48007L50 50.0001Z" fill="#9DBDFF"/>
<path fill-rule="evenodd" clip-rule="evenodd" d="M50 50L102.976 3.15601L104.392 4.80001L50 50Z" fill="#9CBCFF"/>
<path fill-rule="evenodd" clip-rule="evenodd" d="M50 49.9999L104.108 4.47192L105.484 6.14792L50 49.9999Z" fill="#9BBBFF"/>
<path fill-rule="evenodd" clip-rule="evenodd" d="M50 50L105.212 5.81201L106.544 7.52401L50 50Z" fill="#9ABAFF"/>
<path fill-rule="evenodd" clip-rule="evenodd" d="M50 49.9999L106.28 7.17993L107.572 8.92393L50 49.9999Z" fill="#99BAFF"/>
<path fill-rule="evenodd" clip-rule="evenodd" d="M50 49.9999L107.312 8.57593L108.56 10.3479L50 49.9999Z" fill="#98B9FF"/>
<path fill-rule="evenodd" clip-rule="evenodd" d="M50 49.9999L108.312 9.99194L109.516 11.7959L50 49.9999Z" fill="#97B8FF"/>
<path fill-rule="evenodd" clip-rule="evenodd" d="M50 50L109.276 11.436L110.436 13.272L50 50Z" fill="#96B8FF"/>
<path fill-rule="evenodd" clip-rule="evenodd" d="M50 50.0001L110.204 12.9041L111.32 14.7641L50 50.0001Z" fill="#95B7FF"/>
<path fill-rule="evenodd" clip-rule="evenodd" d="M50 50.0001L111.096 14.3921L112.164 16.2801L50 50.0001Z" fill="#94B6FF"/>
<path fill-rule="evenodd" clip-rule="evenodd" d="M50 50.0001L111.952 15.9041L112.972 17.8161L50 50.0001Z" fill="#93B6FF"/>
<path fill-rule="evenodd" clip-rule="evenodd" d="M50 50.0001L112.768 17.4321L113.744 19.3721L50 50.0001Z" fill="#92B5FF"/>
<path fill-rule="evenodd" clip-rule="evenodd" d="M50 50.0001L113.552 18.9841L114.476 20.9441L50 50.0001Z" fill="#91B4FF"/>
<path fill-rule="evenodd" clip-rule="evenodd" d="M50 50L114.292 20.552L115.172 22.536L50 50Z" fill="#90B4FF"/>
<path fill-rule="evenodd" clip-rule="evenodd" d="M50 50L114.996 22.136L115.824 24.144L50 50Z" fill="#8FB3FF"/>
<path fill-rule="evenodd" clip-rule="evenodd" d="M50 50L115.66 23.74L116.44 25.768L50 50Z" fill="#8EB2FF"/>
<path fill-rule="evenodd" clip-rule="evenodd" d="M50 50.0001L116.284 25.3601L117.016 27.4041L50 50.0001Z" fill="#8DB2FF"/>
<path fill-rule="evenodd" clip-rule="evenodd" d="M50 50.0001L116.868 26.9961L117.548 29.0561L50 50.0001Z" fill="#8CB1FF"/>
<path fill-rule="evenodd" clip-rule="evenodd" d="M50 50L117.412 28.644L118.044 30.72L50 50Z" fill="#8BB0FF"/>
<path fill-rule="evenodd" clip-rule="evenodd" d="M50 50L117.916 30.304L118.496 32.396L50 50Z" fill="#8AB0FF"/>
<path fill-rule="evenodd" clip-rule="evenodd" d="M50 50.0001L118.38 31.9761L118.908 34.0801L50 50.0001Z" fill="#89AFFF"/>
<path fill-rule="evenodd" clip-rule="evenodd" d="M50 49.9999L118.804 33.6599L119.276 35.7759L50 49.9999Z" fill="#88AEFF"/>
<path fill-rule="evenodd" clip-rule="evenodd" d="M50 50L119.18 35.356L119.604 37.48L50 50Z" fill="#87AEFF"/>
<path fill-rule="evenodd" clip-rule="evenodd" d="M50 50.0002L119.52 37.0562L119.892 39.1922L50 50.0002Z" fill="#86ADFF"/>
<path fill-rule="evenodd" clip-rule="evenodd" d="M50 49.9999L119.816 38.7639L120.136 40.9119L50 49.9999Z" fill="#85ACFF"/>
<path fill-rule="evenodd" clip-rule="evenodd" d="M50 50.0001L120.072 40.4841L120.336 42.6361L50 50.0001Z" fill="#84ACFF"/>
<path fill-rule="evenodd" clip-rule="evenodd" d="M50 50.0001L120.284 42.2041L120.496 44.3641L50 50.0001Z" fill="#83ABFF"/>
<path fill-rule="evenodd" clip-rule="evenodd" d="M50 50.0001L120.456 43.9321L120.616 46.0961L50 50.0001Z" fill="#82AAFF"/>
<path fill-rule="evenodd" clip-rule="evenodd" d="M50 50.0001L120.584 45.6641L120.688 47.8321L50 50.0001Z" fill="#81AAFF"/>
<path fill-rule="evenodd" clip-rule="evenodd" d="M50 50L120.668 47.396L120.72 49.564L50 50Z" fill="#80A9FF"/>
<path fill-rule="evenodd" clip-rule="evenodd" d="M50 50.0001L120.708 49.1321V51.3001L50 50.0001Z" fill="#7FA8FF"/>
<path fill-rule="evenodd" clip-rule="evenodd" d="M50 50L120.708 50.868L120.656 53.036L50 50Z" fill="#7EA7FF"/>
<path fill-rule="evenodd" clip-rule="evenodd" d="M50 50L120.668 52.604L120.56 54.768L50 50Z" fill="#7DA7FF"/>
<path fill-rule="evenodd" clip-rule="evenodd" d="M50 50L120.584 54.336L120.424 56.5L50 50Z" fill="#7CA6FF"/>
<path fill-rule="evenodd" clip-rule="evenodd" d="M50 50L120.456 56.068L120.244 58.228L50 50Z" fill="#7BA5FF"/>
<path fill-rule="evenodd" clip-rule="evenodd" d="M50 50L120.284 57.792L120.02 59.948L50 50Z" fill="#7AA5FF"/>
<path fill-rule="evenodd" clip-rule="evenodd" d="M50 50L120.072 59.516L119.752 61.664L50 50Z" fill="#79A4FF"/>
<path fill-rule="evenodd" clip-rule="evenodd" d="M50 50L119.816 61.232L119.448 63.372L50 50Z" fill="#78A3FF"/>
<path fill-rule="evenodd" clip-rule="evenodd" d="M50 50L119.52 62.944L119.096 65.072L50 50Z" fill="#77A3FF"/>
<path fill-rule="evenodd" clip-rule="evenodd" d="M50 50L119.18 64.644L118.708 66.764L50 50Z" fill="#76A2FF"/>
<path fill-rule="evenodd" clip-rule="evenodd" d="M50 50L118.804 66.34L118.276 68.444L50 50Z" fill="#75A1FF"/>
<path fill-rule="evenodd" clip-rule="evenodd" d="M50 50L118.38 68.024L117.804 70.112L50 50Z" fill="#74A1FF"/>
<path fill-rule="evenodd" clip-rule="evenodd" d="M50 50L117.916 69.696L117.288 71.772L50 50Z" fill="#73A0FF"/>
<path fill-rule="evenodd" clip-rule="evenodd" d="M50 50L117.412 71.356L116.732 73.416L50 50Z" fill="#729FFF"/>
<path fill-rule="evenodd" clip-rule="evenodd" d="M50 50L116.868 73.004L116.14 75.048L50 50Z" fill="#719FFF"/>
<path fill-rule="evenodd" clip-rule="evenodd" d="M50 50L116.284 74.64L115.504 76.664L50 50Z" fill="#709EFF"/>
<path fill-rule="evenodd" clip-rule="evenodd" d="M50 50L115.66 76.256L114.828 78.264L50 50Z" fill="#6F9DFF"/>
<path fill-rule="evenodd" clip-rule="evenodd" d="M50 50L114.996 77.86L114.116 79.844L50 50Z" fill="#6E9DFF"/>
<path fill-rule="evenodd" clip-rule="evenodd" d="M50 50L114.292 79.448L113.364 81.408L50 50Z" fill="#6D9CFF"/>
<path fill-rule="evenodd" clip-rule="evenodd" d="M50 50L113.552 81.016L112.576 82.956L50 50Z" fill="#6C9BFF"/>
<path fill-rule="evenodd" clip-rule="evenodd" d="M50 50L112.768 82.568L111.748 84.48L50 50Z" fill="#6B9BFF"/>
<path fill-rule="evenodd" clip-rule="evenodd" d="M50 50L111.952 84.096L110.884 85.988L50 50Z" fill="#6A9AFF"/>
<path fill-rule="evenodd" clip-rule="evenodd" d="M50 50L111.096 85.608L109.98 87.468L50 50Z" fill="#6999FF"/>
<path fill-rule="evenodd" clip-rule="evenodd" d="M50 50L110.204 87.096L109.044 88.928L50 50Z" fill="#6899FF"/>
<path fill-rule="evenodd" clip-rule="evenodd" d="M50 50L109.276 88.564L108.068 90.368L50 50Z" fill="#6798FF"/>
<path fill-rule="evenodd" clip-rule="evenodd" d="M50 50L108.312 90.008L107.064 91.78L50 50Z" fill="#6697FF"/>
<path fill-rule="evenodd" clip-rule="evenodd" d="M50 50L107.312 91.424L106.02 93.168L50 50Z" fill="#6597FF"/>
<path fill-rule="evenodd" clip-rule="evenodd" d="M50 50L106.28 92.82L104.944 94.528L50 50Z" fill="#6496FF"/>
<path fill-rule="evenodd" clip-rule="evenodd" d="M50 50L105.212 94.188L103.836 95.864L50 50Z" fill="#6395FF"/>
<path fill-rule="evenodd" clip-rule="evenodd" d="M50 50L104.108 95.528L102.692 97.172L50 50Z" fill="#6294FF"/>
<path fill-rule="evenodd" clip-rule="evenodd" d="M50 50L102.976 96.844L101.52 98.452L50 50Z" fill="#6194FF"/>
<path fill-rule="evenodd" clip-rule="evenodd" d="M50 50L101.812 98.128L100.316 99.7L50 50Z" fill="#6093FF"/>
<path fill-rule="evenodd" clip-rule="evenodd" d="M50 50L100.612 99.384L99.08 100.92L50 50Z" fill="#5F92FF"/>
<path fill-rule="evenodd" clip-rule="evenodd" d="M50 50L99.384 100.612L97.816 102.108L50 50Z" fill="#5E92FF"/>
<path fill-rule="evenodd" clip-rule="evenodd" d="M50 50L98.128 101.812L96.52 103.268L50 50Z" fill="#5D91FF"/>
<path fill-rule="evenodd" clip-rule="evenodd" d="M50 50L96.844 102.976L95.2 104.392L50 50Z" fill="#5C90FF"/>
<path fill-rule="evenodd" clip-rule="evenodd" d="M50 50L95.528 104.108L93.852 105.484L50 50Z" fill="#5B90FF"/>
<path fill-rule="evenodd" clip-rule="evenodd" d="M50 50L94.188 105.212L92.476 106.544L50 50Z" fill="#5A8FFF"/>
<path fill-rule="evenodd" clip-rule="evenodd" d="M50 50L92.82 106.28L91.076 107.572L50 50Z" fill="#598EFF"/>
<path fill-rule="evenodd" clip-rule="evenodd" d="M50 50L91.424 107.312L89.652 108.56L50 50Z" fill="#588EFF"/>
<path fill-rule="evenodd" clip-rule="evenodd" d="M50 50L90.008 108.312L88.2 109.516L50 50Z" fill="#578DFF"/>
<path fill-rule="evenodd" clip-rule="evenodd" d="M50 50L88.564 109.276L86.728 110.436L50 50Z" fill="#568CFF"/>
<path fill-rule="evenodd" clip-rule="evenodd" d="M50 50L87.096 110.204L85.236 111.32L50 50Z" fill="#558CFF"/>
<path fill-rule="evenodd" clip-rule="evenodd" d="M50 50L85.608 111.096L83.72 112.164L50 50Z" fill="#548BFF"/>
<path fill-rule="evenodd" clip-rule="evenodd" d="M50 50L84.096 111.952L82.184 112.972L50 50Z" fill="#538AFF"/>
<path fill-rule="evenodd" clip-rule="evenodd" d="M50 50L82.568 112.768L80.628 113.744L50 50Z" fill="#528AFF"/>
<path fill-rule="evenodd" clip-rule="evenodd" d="M50 50L81.016 113.552L79.056 114.476L50 50Z" fill="#5189FF"/>
<path fill-rule="evenodd" clip-rule="evenodd" d="M50 50L79.448 114.292L77.464 115.172L50 50Z" fill="#5088FF"/>
<path fill-rule="evenodd" clip-rule="evenodd" d="M50 50L77.86 114.996L75.856 115.824L50 50Z" fill="#4F88FF"/>
<path fill-rule="evenodd" clip-rule="evenodd" d="M50 50L76.256 115.66L74.232 116.44L50 50Z" fill="#4E87FF"/>
<path fill-rule="evenodd" clip-rule="evenodd" d="M50 50L74.64 116.284L72.596 117.016L50 50Z" fill="#4D86FF"/>
<path fill-rule="evenodd" clip-rule="evenodd" d="M50 50L73.004 116.868L70.944 117.548L50 50Z" fill="#4C86FF"/>
<path fill-rule="evenodd" clip-rule="evenodd" d="M50 50L71.356 117.412L69.28 118.044L50 50Z" fill="#4B85FF"/>
<path fill-rule="evenodd" clip-rule="evenodd" d="M50 50L69.696 117.916L67.604 118.496L50 50Z" fill="#4A84FF"/>
<path fill-rule="evenodd" clip-rule="evenodd" d="M50 50L68.024 118.38L65.916 118.908L50 50Z" fill="#4984FF"/>
<path fill-rule="evenodd" clip-rule="evenodd" d="M50 50L66.34 118.804L64.224 119.276L50 50Z" fill="#4883FF"/>
<path fill-rule="evenodd" clip-rule="evenodd" d="M50 50L64.644 119.18L62.516 119.604L50 50Z" fill="#4782FF"/>
<path fill-rule="evenodd" clip-rule="evenodd" d="M50 50L62.944 119.52L60.808 119.892L50 50Z" fill="#4681FF"/>
<path fill-rule="evenodd" clip-rule="evenodd" d="M50 50L61.232 119.816L59.088 120.136L50 50Z" fill="#4581FF"/>
<path fill-rule="evenodd" clip-rule="evenodd" d="M50 50L59.516 120.072L57.364 120.336L50 50Z" fill="#4480FF"/>
<path fill-rule="evenodd" clip-rule="evenodd" d="M50 50L57.792 120.284L55.636 120.496L50 50Z" fill="#437FFF"/>
<path fill-rule="evenodd" clip-rule="evenodd" d="M50 50L56.068 120.456L53.904 120.616L50 50Z" fill="#427FFF"/>
<path fill-rule="evenodd" clip-rule="evenodd" d="M50 50L54.336 120.584L52.168 120.688L50 50Z" fill="#417EFF"/>
<path fill-rule="evenodd" clip-rule="evenodd" d="M50 50L52.604 120.668L50.432 120.72L50 50Z" fill="#407DFF"/>
<path fill-rule="evenodd" clip-rule="evenodd" d="M50 50L50.868 120.708H48.696L50 50Z" fill="#3F7DFF"/>
<path fill-rule="evenodd" clip-rule="evenodd" d="M50 50L49.132 120.708L46.964 120.656L50 50Z" fill="#3E7CFF"/>
<path fill-rule="evenodd" clip-rule="evenodd" d="M50 50L47.396 120.668L45.228 120.56L50 50Z" fill="#3D7BFF"/>
<path fill-rule="evenodd" clip-rule="evenodd" d="M50 50L45.664 120.584L43.5 120.424L50 50Z" fill="#3C7BFF"/>
<path fill-rule="evenodd" clip-rule="evenodd" d="M50 50L43.932 120.456L41.772 120.244L50 50Z" fill="#3B7AFF"/>
<path fill-rule="evenodd" clip-rule="evenodd" d="M50 50L42.204 120.284L40.052 120.02L50 50Z" fill="#3A79FF"/>
<path fill-rule="evenodd" clip-rule="evenodd" d="M50 50L40.484 120.072L38.336 119.752L50 50Z" fill="#3979FF"/>
<path fill-rule="evenodd" clip-rule="evenodd" d="M50 50L38.764 119.816L36.628 119.448L50 50Z" fill="#3878FF"/>
<path fill-rule="evenodd" clip-rule="evenodd" d="M50 50L37.056 119.52L34.928 119.096L50 50Z" fill="#3777FF"/>
<path fill-rule="evenodd" clip-rule="evenodd" d="M50 50L35.356 119.18L33.236 118.708L50 50Z" fill="#3677FF"/>
<path fill-rule="evenodd" clip-rule="evenodd" d="M50 50L33.66 118.804L31.556 118.276L50 50Z" fill="#3576FF"/>
<path fill-rule="evenodd" clip-rule="evenodd" d="M50 50L31.976 118.38L29.884 117.804L50 50Z" fill="#3475FF"/>
<path fill-rule="evenodd" clip-rule="evenodd" d="M50 50L30.304 117.916L28.228 117.288L50 50Z" fill="#3375FF"/>
<path fill-rule="evenodd" clip-rule="evenodd" d="M50 50L28.644 117.412L26.584 116.732L50 50Z" fill="#3274FF"/>
<path fill-rule="evenodd" clip-rule="evenodd" d="M50 50L26.996 116.868L24.952 116.14L50 50Z" fill="#3173FF"/>
<path fill-rule="evenodd" clip-rule="evenodd" d="M50 50L25.36 116.284L23.336 115.504L50 50Z" fill="#3073FF"/>
<path fill-rule="evenodd" clip-rule="evenodd" d="M50 50L23.74 115.66L21.736 114.828L50 50Z" fill="#2F72FF"/>
<path fill-rule="evenodd" clip-rule="evenodd" d="M50 50L22.136 114.996L20.156 114.116L50 50Z" fill="#2E71FF"/>
<path fill-rule="evenodd" clip-rule="evenodd" d="M50 50L20.552 114.292L18.592 113.364L50 50Z" fill="#2D71FF"/>
<path fill-rule="evenodd" clip-rule="evenodd" d="M50 50L18.984 113.552L17.044 112.576L50 50Z" fill="#2C70FF"/>
<path fill-rule="evenodd" clip-rule="evenodd" d="M50 50L17.432 112.768L15.52 111.748L50 50Z" fill="#2B6FFF"/>
<path fill-rule="evenodd" clip-rule="evenodd" d="M50 50L15.904 111.952L14.012 110.884L50 50Z" fill="#2A6EFF"/>
<path fill-rule="evenodd" clip-rule="evenodd" d="M50 50L14.392 111.096L12.532 109.98L50 50Z" fill="#296EFF"/>
<path fill-rule="evenodd" clip-rule="evenodd" d="M50 50L12.904 110.204L11.068 109.044L50 50Z" fill="#286DFF"/>
<path fill-rule="evenodd" clip-rule="evenodd" d="M50 50L11.436 109.276L9.63199 108.068L50 50Z" fill="#276CFF"/>
<path fill-rule="evenodd" clip-rule="evenodd" d="M50 50L9.992 108.312L8.22 107.064L50 50Z" fill="#266CFF"/>
<path fill-rule="evenodd" clip-rule="evenodd" d="M50 50L8.576 107.312L6.832 106.02L50 50Z" fill="#256BFF"/>
<path fill-rule="evenodd" clip-rule="evenodd" d="M50 50L7.17999 106.28L5.46799 104.944L50 50Z" fill="#246AFF"/>
<path fill-rule="evenodd" clip-rule="evenodd" d="M50 50L5.81199 105.212L4.13599 103.836L50 50Z" fill="#236AFF"/>
<path fill-rule="evenodd" clip-rule="evenodd" d="M50 50L4.472 104.108L2.828 102.692L50 50Z" fill="#2269FF"/>
<path fill-rule="evenodd" clip-rule="evenodd" d="M50 50L3.156 102.976L1.548 101.52L50 50Z" fill="#2168FF"/>
<path fill-rule="evenodd" clip-rule="evenodd" d="M50 50L1.87199 101.812L0.299988 100.316L50 50Z" fill="#2068FF"/>
<path fill-rule="evenodd" clip-rule="evenodd" d="M50 50L0.615987 100.612L-0.920013 99.08L50 50Z" fill="#1F67FF"/>
<path fill-rule="evenodd" clip-rule="evenodd" d="M50 50L-0.616002 99.384L-2.108 97.816L50 50Z" fill="#1E66FF"/>
<path fill-rule="evenodd" clip-rule="evenodd" d="M50 50L-1.81201 98.128L-3.26801 96.52L50 50Z" fill="#1D66FF"/>
<path fill-rule="evenodd" clip-rule="evenodd" d="M50 50L-2.976 96.844L-4.392 95.2L50 50Z" fill="#1C65FF"/>
<path fill-rule="evenodd" clip-rule="evenodd" d="M50 50L-4.10801 95.528L-5.48401 93.852L50 50Z" fill="#1B64FF"/>
<path fill-rule="evenodd" clip-rule="evenodd" d="M50 50L-5.21201 94.188L-6.54401 92.476L50 50Z" fill="#1A64FF"/>
<path fill-rule="evenodd" clip-rule="evenodd" d="M50 50L-6.28001 92.82L-7.57201 91.076L50 50Z" fill="#1963FF"/>
<path fill-rule="evenodd" clip-rule="evenodd" d="M50 50L-7.312 91.424L-8.56 89.652L50 50Z" fill="#1862FF"/>
<path fill-rule="evenodd" clip-rule="evenodd" d="M50 50L-8.31201 90.008L-9.51601 88.2L50 50Z" fill="#1762FF"/>
<path fill-rule="evenodd" clip-rule="evenodd" d="M50 50L-9.276 88.564L-10.436 86.728L50 50Z" fill="#1661FF"/>
<path fill-rule="evenodd" clip-rule="evenodd" d="M50 50L-10.204 87.096L-11.32 85.236L50 50Z" fill="#1560FF"/>
<path fill-rule="evenodd" clip-rule="evenodd" d="M50 50L-11.096 85.608L-12.164 83.72L50 50Z" fill="#1460FF"/>
<path fill-rule="evenodd" clip-rule="evenodd" d="M50 50L-11.952 84.096L-12.976 82.184L50 50Z" fill="#135FFF"/>
<path fill-rule="evenodd" clip-rule="evenodd" d="M50 50L-12.772 82.568L-13.744 80.628L50 50Z" fill="#125EFF"/>
<path fill-rule="evenodd" clip-rule="evenodd" d="M50 50L-13.552 81.016L-14.476 79.056L50 50Z" fill="#115EFF"/>
<path fill-rule="evenodd" clip-rule="evenodd" d="M50 50L-14.292 79.448L-15.172 77.464L50 50Z" fill="#105DFF"/>
<path fill-rule="evenodd" clip-rule="evenodd" d="M50 50L-14.996 77.86L-15.828 75.856L50 50Z" fill="#0F5CFF"/>
<path fill-rule="evenodd" clip-rule="evenodd" d="M50 50L-15.66 76.256L-16.44 74.232L50 50Z" fill="#0E5BFF"/>
<path fill-rule="evenodd" clip-rule="evenodd" d="M50 50L-16.284 74.64L-17.016 72.596L50 50Z" fill="#0D5BFF"/>
<path fill-rule="evenodd" clip-rule="evenodd" d="M50 50L-16.872 73.004L-17.548 70.944L50 50Z" fill="#0C5AFF"/>
<path fill-rule="evenodd" clip-rule="evenodd" d="M50 50L-17.416 71.356L-18.044 69.28L50 50Z" fill="#0B59FF"/>
<path fill-rule="evenodd" clip-rule="evenodd" d="M50 50L-17.92 69.696L-18.496 67.604L50 50Z" fill="#0A59FF"/>
<path fill-rule="evenodd" clip-rule="evenodd" d="M50 50L-18.38 68.024L-18.908 65.916L50 50Z" fill="#0958FF"/>
<path fill-rule="evenodd" clip-rule="evenodd" d="M50 50L-18.804 66.34L-19.276 64.224L50 50Z" fill="#0857FF"/>
<path fill-rule="evenodd" clip-rule="evenodd" d="M50 50L-19.184 64.644L-19.604 62.516L50 50Z" fill="#0757FF"/>
<path fill-rule="evenodd" clip-rule="evenodd" d="M50 50L-19.52 62.944L-19.892 60.808L50 50Z" fill="#0656FF"/>
<path fill-rule="evenodd" clip-rule="evenodd" d="M50 50L-19.816 61.232L-20.136 59.088L50 50Z" fill="#0555FF"/>
<path fill-rule="evenodd" clip-rule="evenodd" d="M50 50L-20.072 59.516L-20.336 57.364L50 50Z" fill="#0455FF"/>
<path fill-rule="evenodd" clip-rule="evenodd" d="M50 50L-20.284 57.792L-20.496 55.636L50 50Z" fill="#0354FF"/>
<path fill-rule="evenodd" clip-rule="evenodd" d="M50 50L-20.456 56.068L-20.616 53.904L50 50Z" fill="#0253FF"/>
<path fill-rule="evenodd" clip-rule="evenodd" d="M50 50L-20.584 54.336L-20.688 52.168L50 50Z" fill="#0153FF"/>
<path fill-rule="evenodd" clip-rule="evenodd" d="M50 50L-20.668 52.604L-20.72 50.432L50 50Z" fill="#0052FF"/>
<path fill-rule="evenodd" clip-rule="evenodd" d="M50 50.0001L-20.712 50.8681V49.1321L50 50.0001Z" fill="white"/>
</g>
</g>
<defs>
<clipPath id="clip0_90_2279">
<rect width="100" height="100" fill="white"/>
</clipPath>
</defs>
</svg>
